<?xml version="1.0" encoding="utf-8" standalone="no"?>
<!DOCTYPE svg PUBLIC "-//W3C//DTD SVG 1.1//EN"
  "http://www.w3.org/Graphics/SVG/1.1/DTD/svg11.dtd">
<svg xmlns:xlink="http://www.w3.org/1999/xlink" width="432pt" height="360pt" viewBox="0 0 432 360" xmlns="http://www.w3.org/2000/svg" version="1.1">
 <metadata>
  <rdf:RDF xmlns:dc="http://purl.org/dc/elements/1.1/" xmlns:cc="http://creativecommons.org/ns#" xmlns:rdf="http://www.w3.org/1999/02/22-rdf-syntax-ns#">
   <cc:Work>
    <dc:type rdf:resource="http://purl.org/dc/dcmitype/StillImage"/>
    <dc:date>2026-04-13T16:57:52.362680</dc:date>
    <dc:format>image/svg+xml</dc:format>
    <dc:creator>
     <cc:Agent>
      <dc:title>Matplotlib v3.9.0, https://matplotlib.org/</dc:title>
     </cc:Agent>
    </dc:creator>
   </cc:Work>
  </rdf:RDF>
 </metadata>
 <defs>
  <style type="text/css">*{stroke-linejoin: round; stroke-linecap: butt}</style>
 </defs>
 <g id="figure_1">
  <g id="patch_1">
   <path d="M 0 360 
L 432 360 
L 432 0 
L 0 0 
z
" style="fill: #ffffff"/>
  </g>
  <g id="axes_1">
   <g id="patch_2">
    <path d="M 56.18 317.5 
L 419.393433 317.5 
L 419.393433 26.52 
L 56.18 26.52 
z
" style="fill: #ffffff"/>
   </g>
   <g id="PathCollection_1">
    <defs>
     <path id="m9dd349780f" d="M 0 3 
C 0.795609 3 1.55874 2.683901 2.12132 2.12132 
C 2.683901 1.55874 3 0.795609 3 0 
C 3 -0.795609 2.683901 -1.55874 2.12132 -2.12132 
C 1.55874 -2.683901 0.795609 -3 0 -3 
C -0.795609 -3 -1.55874 -2.683901 -2.12132 -2.12132 
C -2.683901 -1.55874 -3 -0.795609 -3 0 
C -3 0.795609 -2.683901 1.55874 -2.12132 2.12132 
C -1.55874 2.683901 -0.795609 3 0 3 
z
" style="stroke: #4169e1; stroke-opacity: 0.6"/>
    </defs>
    <g clip-path="url(#p6a9605d5d1)">
     <use xlink:href="#m9dd349780f" x="311.726377" y="240.431387" style="fill: #4169e1; fill-opacity: 0.6; stroke: #4169e1; stroke-opacity: 0.6"/>
     <use xlink:href="#m9dd349780f" x="287.838003" y="209.087788" style="fill: #4169e1; fill-opacity: 0.6; stroke: #4169e1; stroke-opacity: 0.6"/>
     <use xlink:href="#m9dd349780f" x="189.38823" y="171.54876" style="fill: #4169e1; fill-opacity: 0.6; stroke: #4169e1; stroke-opacity: 0.6"/>
     <use xlink:href="#m9dd349780f" x="372.253989" y="243.191383" style="fill: #4169e1; fill-opacity: 0.6; stroke: #4169e1; stroke-opacity: 0.6"/>
     <use xlink:href="#m9dd349780f" x="315.463948" y="243.191383" style="fill: #4169e1; fill-opacity: 0.6; stroke: #4169e1; stroke-opacity: 0.6"/>
     <use xlink:href="#m9dd349780f" x="347.330757" y="243.191383" style="fill: #4169e1; fill-opacity: 0.6; stroke: #4169e1; stroke-opacity: 0.6"/>
     <use xlink:href="#m9dd349780f" x="343.532275" y="243.191383" style="fill: #4169e1; fill-opacity: 0.6; stroke: #4169e1; stroke-opacity: 0.6"/>
     <use xlink:href="#m9dd349780f" x="331.199936" y="242.143099" style="fill: #4169e1; fill-opacity: 0.6; stroke: #4169e1; stroke-opacity: 0.6"/>
     <use xlink:href="#m9dd349780f" x="324.224844" y="243.191383" style="fill: #4169e1; fill-opacity: 0.6; stroke: #4169e1; stroke-opacity: 0.6"/>
     <use xlink:href="#m9dd349780f" x="382.007433" y="243.191383" style="fill: #4169e1; fill-opacity: 0.6; stroke: #4169e1; stroke-opacity: 0.6"/>
     <use xlink:href="#m9dd349780f" x="329.788179" y="218.169023" style="fill: #4169e1; fill-opacity: 0.6; stroke: #4169e1; stroke-opacity: 0.6"/>
     <use xlink:href="#m9dd349780f" x="215.515857" y="187.818825" style="fill: #4169e1; fill-opacity: 0.6; stroke: #4169e1; stroke-opacity: 0.6"/>
     <use xlink:href="#m9dd349780f" x="237.225725" y="223.711654" style="fill: #4169e1; fill-opacity: 0.6; stroke: #4169e1; stroke-opacity: 0.6"/>
     <use xlink:href="#m9dd349780f" x="99.945973" y="51.231784" style="fill: #4169e1; fill-opacity: 0.6; stroke: #4169e1; stroke-opacity: 0.6"/>
     <use xlink:href="#m9dd349780f" x="189.181019" y="166.983283" style="fill: #4169e1; fill-opacity: 0.6; stroke: #4169e1; stroke-opacity: 0.6"/>
     <use xlink:href="#m9dd349780f" x="264.21836" y="243.191383" style="fill: #4169e1; fill-opacity: 0.6; stroke: #4169e1; stroke-opacity: 0.6"/>
     <use xlink:href="#m9dd349780f" x="402.883732" y="243.191383" style="fill: #4169e1; fill-opacity: 0.6; stroke: #4169e1; stroke-opacity: 0.6"/>
     <use xlink:href="#m9dd349780f" x="342.531617" y="243.191383" style="fill: #4169e1; fill-opacity: 0.6; stroke: #4169e1; stroke-opacity: 0.6"/>
     <use xlink:href="#m9dd349780f" x="287.704594" y="232.692556" style="fill: #4169e1; fill-opacity: 0.6; stroke: #4169e1; stroke-opacity: 0.6"/>
     <use xlink:href="#m9dd349780f" x="214.651863" y="170.532144" style="fill: #4169e1; fill-opacity: 0.6; stroke: #4169e1; stroke-opacity: 0.6"/>
     <use xlink:href="#m9dd349780f" x="185.514074" y="157.390711" style="fill: #4169e1; fill-opacity: 0.6; stroke: #4169e1; stroke-opacity: 0.6"/>
     <use xlink:href="#m9dd349780f" x="72.689702" y="70.944915" style="fill: #4169e1; fill-opacity: 0.6; stroke: #4169e1; stroke-opacity: 0.6"/>
     <use xlink:href="#m9dd349780f" x="300.742668" y="243.191383" style="fill: #4169e1; fill-opacity: 0.6; stroke: #4169e1; stroke-opacity: 0.6"/>
     <use xlink:href="#m9dd349780f" x="351.024966" y="243.191383" style="fill: #4169e1; fill-opacity: 0.6; stroke: #4169e1; stroke-opacity: 0.6"/>
     <use xlink:href="#m9dd349780f" x="305.5683" y="243.191383" style="fill: #4169e1; fill-opacity: 0.6; stroke: #4169e1; stroke-opacity: 0.6"/>
     <use xlink:href="#m9dd349780f" x="200.797891" y="207.781781" style="fill: #4169e1; fill-opacity: 0.6; stroke: #4169e1; stroke-opacity: 0.6"/>
     <use xlink:href="#m9dd349780f" x="332.835318" y="243.191383" style="fill: #4169e1; fill-opacity: 0.6; stroke: #4169e1; stroke-opacity: 0.6"/>
     <use xlink:href="#m9dd349780f" x="308.801806" y="243.191383" style="fill: #4169e1; fill-opacity: 0.6; stroke: #4169e1; stroke-opacity: 0.6"/>
     <use xlink:href="#m9dd349780f" x="340.921774" y="243.191383" style="fill: #4169e1; fill-opacity: 0.6; stroke: #4169e1; stroke-opacity: 0.6"/>
     <use xlink:href="#m9dd349780f" x="225.788927" y="202.698804" style="fill: #4169e1; fill-opacity: 0.6; stroke: #4169e1; stroke-opacity: 0.6"/>
     <use xlink:href="#m9dd349780f" x="339.139084" y="243.191383" style="fill: #4169e1; fill-opacity: 0.6; stroke: #4169e1; stroke-opacity: 0.6"/>
     <use xlink:href="#m9dd349780f" x="278.103081" y="243.191383" style="fill: #4169e1; fill-opacity: 0.6; stroke: #4169e1; stroke-opacity: 0.6"/>
     <use xlink:href="#m9dd349780f" x="370.743088" y="243.191383" style="fill: #4169e1; fill-opacity: 0.6; stroke: #4169e1; stroke-opacity: 0.6"/>
     <use xlink:href="#m9dd349780f" x="242.199313" y="184.119943" style="fill: #4169e1; fill-opacity: 0.6; stroke: #4169e1; stroke-opacity: 0.6"/>
     <use xlink:href="#m9dd349780f" x="299.862816" y="236.12065" style="fill: #4169e1; fill-opacity: 0.6; stroke: #4169e1; stroke-opacity: 0.6"/>
     <use xlink:href="#m9dd349780f" x="150.496827" y="101.745241" style="fill: #4169e1; fill-opacity: 0.6; stroke: #4169e1; stroke-opacity: 0.6"/>
     <use xlink:href="#m9dd349780f" x="124.027784" y="52.521066" style="fill: #4169e1; fill-opacity: 0.6; stroke: #4169e1; stroke-opacity: 0.6"/>
     <use xlink:href="#m9dd349780f" x="294.681608" y="236.832343" style="fill: #4169e1; fill-opacity: 0.6; stroke: #4169e1; stroke-opacity: 0.6"/>
     <use xlink:href="#m9dd349780f" x="306.047211" y="243.191383" style="fill: #4169e1; fill-opacity: 0.6; stroke: #4169e1; stroke-opacity: 0.6"/>
     <use xlink:href="#m9dd349780f" x="306.535613" y="241.099257" style="fill: #4169e1; fill-opacity: 0.6; stroke: #4169e1; stroke-opacity: 0.6"/>
     <use xlink:href="#m9dd349780f" x="101.794993" y="41.969065" style="fill: #4169e1; fill-opacity: 0.6; stroke: #4169e1; stroke-opacity: 0.6"/>
     <use xlink:href="#m9dd349780f" x="310.726421" y="243.191383" style="fill: #4169e1; fill-opacity: 0.6; stroke: #4169e1; stroke-opacity: 0.6"/>
     <use xlink:href="#m9dd349780f" x="195.979342" y="135.781712" style="fill: #4169e1; fill-opacity: 0.6; stroke: #4169e1; stroke-opacity: 0.6"/>
     <use xlink:href="#m9dd349780f" x="94.422182" y="53.612976" style="fill: #4169e1; fill-opacity: 0.6; stroke: #4169e1; stroke-opacity: 0.6"/>
     <use xlink:href="#m9dd349780f" x="121.46467" y="39.746364" style="fill: #4169e1; fill-opacity: 0.6; stroke: #4169e1; stroke-opacity: 0.6"/>
     <use xlink:href="#m9dd349780f" x="100.1015" y="44.192862" style="fill: #4169e1; fill-opacity: 0.6; stroke: #4169e1; stroke-opacity: 0.6"/>
     <use xlink:href="#m9dd349780f" x="132.469242" y="46.790336" style="fill: #4169e1; fill-opacity: 0.6; stroke: #4169e1; stroke-opacity: 0.6"/>
     <use xlink:href="#m9dd349780f" x="322.776452" y="243.191383" style="fill: #4169e1; fill-opacity: 0.6; stroke: #4169e1; stroke-opacity: 0.6"/>
     <use xlink:href="#m9dd349780f" x="312.049526" y="243.191383" style="fill: #4169e1; fill-opacity: 0.6; stroke: #4169e1; stroke-opacity: 0.6"/>
     <use xlink:href="#m9dd349780f" x="258.704768" y="187.42087" style="fill: #4169e1; fill-opacity: 0.6; stroke: #4169e1; stroke-opacity: 0.6"/>
     <use xlink:href="#m9dd349780f" x="201.907653" y="157.623165" style="fill: #4169e1; fill-opacity: 0.6; stroke: #4169e1; stroke-opacity: 0.6"/>
     <use xlink:href="#m9dd349780f" x="196.769052" y="116.049908" style="fill: #4169e1; fill-opacity: 0.6; stroke: #4169e1; stroke-opacity: 0.6"/>
     <use xlink:href="#m9dd349780f" x="317.420277" y="243.191383" style="fill: #4169e1; fill-opacity: 0.6; stroke: #4169e1; stroke-opacity: 0.6"/>
     <use xlink:href="#m9dd349780f" x="221.452401" y="185.602133" style="fill: #4169e1; fill-opacity: 0.6; stroke: #4169e1; stroke-opacity: 0.6"/>
     <use xlink:href="#m9dd349780f" x="207.293738" y="151.662184" style="fill: #4169e1; fill-opacity: 0.6; stroke: #4169e1; stroke-opacity: 0.6"/>
     <use xlink:href="#m9dd349780f" x="308.5887" y="232.380325" style="fill: #4169e1; fill-opacity: 0.6; stroke: #4169e1; stroke-opacity: 0.6"/>
     <use xlink:href="#m9dd349780f" x="164.860523" y="103.872295" style="fill: #4169e1; fill-opacity: 0.6; stroke: #4169e1; stroke-opacity: 0.6"/>
     <use xlink:href="#m9dd349780f" x="165.572302" y="125.878966" style="fill: #4169e1; fill-opacity: 0.6; stroke: #4169e1; stroke-opacity: 0.6"/>
     <use xlink:href="#m9dd349780f" x="343.13718" y="243.191383" style="fill: #4169e1; fill-opacity: 0.6; stroke: #4169e1; stroke-opacity: 0.6"/>
     <use xlink:href="#m9dd349780f" x="400.668275" y="243.191383" style="fill: #4169e1; fill-opacity: 0.6; stroke: #4169e1; stroke-opacity: 0.6"/>
     <use xlink:href="#m9dd349780f" x="241.915347" y="229.220711" style="fill: #4169e1; fill-opacity: 0.6; stroke: #4169e1; stroke-opacity: 0.6"/>
     <use xlink:href="#m9dd349780f" x="258.426295" y="220.56346" style="fill: #4169e1; fill-opacity: 0.6; stroke: #4169e1; stroke-opacity: 0.6"/>
     <use xlink:href="#m9dd349780f" x="266.278517" y="236.389117" style="fill: #4169e1; fill-opacity: 0.6; stroke: #4169e1; stroke-opacity: 0.6"/>
     <use xlink:href="#m9dd349780f" x="304.502775" y="243.191383" style="fill: #4169e1; fill-opacity: 0.6; stroke: #4169e1; stroke-opacity: 0.6"/>
     <use xlink:href="#m9dd349780f" x="293.005151" y="228.434609" style="fill: #4169e1; fill-opacity: 0.6; stroke: #4169e1; stroke-opacity: 0.6"/>
     <use xlink:href="#m9dd349780f" x="333.783421" y="242.627107" style="fill: #4169e1; fill-opacity: 0.6; stroke: #4169e1; stroke-opacity: 0.6"/>
     <use xlink:href="#m9dd349780f" x="284.149543" y="243.191383" style="fill: #4169e1; fill-opacity: 0.6; stroke: #4169e1; stroke-opacity: 0.6"/>
     <use xlink:href="#m9dd349780f" x="146.765488" y="84.840305" style="fill: #4169e1; fill-opacity: 0.6; stroke: #4169e1; stroke-opacity: 0.6"/>
     <use xlink:href="#m9dd349780f" x="154.810823" y="96.810356" style="fill: #4169e1; fill-opacity: 0.6; stroke: #4169e1; stroke-opacity: 0.6"/>
     <use xlink:href="#m9dd349780f" x="304.349215" y="243.191383" style="fill: #4169e1; fill-opacity: 0.6; stroke: #4169e1; stroke-opacity: 0.6"/>
     <use xlink:href="#m9dd349780f" x="280.039839" y="243.191383" style="fill: #4169e1; fill-opacity: 0.6; stroke: #4169e1; stroke-opacity: 0.6"/>
     <use xlink:href="#m9dd349780f" x="103.450226" y="43.015826" style="fill: #4169e1; fill-opacity: 0.6; stroke: #4169e1; stroke-opacity: 0.6"/>
     <use xlink:href="#m9dd349780f" x="229.447827" y="232.146826" style="fill: #4169e1; fill-opacity: 0.6; stroke: #4169e1; stroke-opacity: 0.6"/>
     <use xlink:href="#m9dd349780f" x="139.000354" y="72.620622" style="fill: #4169e1; fill-opacity: 0.6; stroke: #4169e1; stroke-opacity: 0.6"/>
     <use xlink:href="#m9dd349780f" x="126.623292" y="48.788662" style="fill: #4169e1; fill-opacity: 0.6; stroke: #4169e1; stroke-opacity: 0.6"/>
     <use xlink:href="#m9dd349780f" x="136.612658" y="66.966582" style="fill: #4169e1; fill-opacity: 0.6; stroke: #4169e1; stroke-opacity: 0.6"/>
     <use xlink:href="#m9dd349780f" x="242.161211" y="190.932399" style="fill: #4169e1; fill-opacity: 0.6; stroke: #4169e1; stroke-opacity: 0.6"/>
     <use xlink:href="#m9dd349780f" x="217.622069" y="199.423859" style="fill: #4169e1; fill-opacity: 0.6; stroke: #4169e1; stroke-opacity: 0.6"/>
     <use xlink:href="#m9dd349780f" x="235.969688" y="168.146758" style="fill: #4169e1; fill-opacity: 0.6; stroke: #4169e1; stroke-opacity: 0.6"/>
     <use xlink:href="#m9dd349780f" x="330.164484" y="230.482444" style="fill: #4169e1; fill-opacity: 0.6; stroke: #4169e1; stroke-opacity: 0.6"/>
    </g>
   </g>
   <g id="matplotlib.axis_1">
    <g id="xtick_1">
     <g id="line2d_1">
      <path d="M 70.428979 317.5 
L 70.428979 26.52 
" clip-path="url(#p6a9605d5d1)" style="fill: none; stroke: #b0b0b0; stroke-opacity: 0.3; stroke-width: 0.8; stroke-linecap: square"/>
     </g>
     <g id="line2d_2">
      <defs>
       <path id="m2907a1ef45" d="M 0 0 
L 0 3.5 
" style="stroke: #000000; stroke-width: 0.8"/>
      </defs>
      <g>
       <use xlink:href="#m2907a1ef45" x="70.428979" y="317.5" style="stroke: #000000; stroke-width: 0.8"/>
      </g>
     </g>
     <g id="text_1">
      <!-- −0.2 -->
      <g transform="translate(58.287573 332.098437) scale(0.1 -0.1)">
       <defs>
        <path id="DejaVuSans-2212" d="M 678 2272 
L 4684 2272 
L 4684 1741 
L 678 1741 
L 678 2272 
z
" transform="scale(0.015625)"/>
        <path id="DejaVuSans-30" d="M 2034 4250 
Q 1547 4250 1301 3770 
Q 1056 3291 1056 2328 
Q 1056 1369 1301 889 
Q 1547 409 2034 409 
Q 2525 409 2770 889 
Q 3016 1369 3016 2328 
Q 3016 3291 2770 3770 
Q 2525 4250 2034 4250 
z
M 2034 4750 
Q 2819 4750 3233 4129 
Q 3647 3509 3647 2328 
Q 3647 1150 3233 529 
Q 2819 -91 2034 -91 
Q 1250 -91 836 529 
Q 422 1150 422 2328 
Q 422 3509 836 4129 
Q 1250 4750 2034 4750 
z
" transform="scale(0.015625)"/>
        <path id="DejaVuSans-2e" d="M 684 794 
L 1344 794 
L 1344 0 
L 684 0 
L 684 794 
z
" transform="scale(0.015625)"/>
        <path id="DejaVuSans-32" d="M 1228 531 
L 3431 531 
L 3431 0 
L 469 0 
L 469 531 
Q 828 903 1448 1529 
Q 2069 2156 2228 2338 
Q 2531 2678 2651 2914 
Q 2772 3150 2772 3378 
Q 2772 3750 2511 3984 
Q 2250 4219 1831 4219 
Q 1534 4219 1204 4116 
Q 875 4013 500 3803 
L 500 4441 
Q 881 4594 1212 4672 
Q 1544 4750 1819 4750 
Q 2544 4750 2975 4387 
Q 3406 4025 3406 3419 
Q 3406 3131 3298 2873 
Q 3191 2616 2906 2266 
Q 2828 2175 2409 1742 
Q 1991 1309 1228 531 
z
" transform="scale(0.015625)"/>
       </defs>
       <use xlink:href="#DejaVuSans-2212"/>
       <use xlink:href="#DejaVuSans-30" x="83.789062"/>
       <use xlink:href="#DejaVuSans-2e" x="147.412109"/>
       <use xlink:href="#DejaVuSans-32" x="179.199219"/>
      </g>
     </g>
    </g>
    <g id="xtick_2">
     <g id="line2d_3">
      <path d="M 113.217452 317.5 
L 113.217452 26.52 
" clip-path="url(#p6a9605d5d1)" style="fill: none; stroke: #b0b0b0; stroke-opacity: 0.3; stroke-width: 0.8; stroke-linecap: square"/>
     </g>
     <g id="line2d_4">
      <g>
       <use xlink:href="#m2907a1ef45" x="113.217452" y="317.5" style="stroke: #000000; stroke-width: 0.8"/>
      </g>
     </g>
     <g id="text_2">
      <!-- 0.0 -->
      <g transform="translate(105.265889 332.098437) scale(0.1 -0.1)">
       <use xlink:href="#DejaVuSans-30"/>
       <use xlink:href="#DejaVuSans-2e" x="63.623047"/>
       <use xlink:href="#DejaVuSans-30" x="95.410156"/>
      </g>
     </g>
    </g>
    <g id="xtick_3">
     <g id="line2d_5">
      <path d="M 156.005925 317.5 
L 156.005925 26.52 
" clip-path="url(#p6a9605d5d1)" style="fill: none; stroke: #b0b0b0; stroke-opacity: 0.3; stroke-width: 0.8; stroke-linecap: square"/>
     </g>
     <g id="line2d_6">
      <g>
       <use xlink:href="#m2907a1ef45" x="156.005925" y="317.5" style="stroke: #000000; stroke-width: 0.8"/>
      </g>
     </g>
     <g id="text_3">
      <!-- 0.2 -->
      <g transform="translate(148.054362 332.098437) scale(0.1 -0.1)">
       <use xlink:href="#DejaVuSans-30"/>
       <use xlink:href="#DejaVuSans-2e" x="63.623047"/>
       <use xlink:href="#DejaVuSans-32" x="95.410156"/>
      </g>
     </g>
    </g>
    <g id="xtick_4">
     <g id="line2d_7">
      <path d="M 198.794398 317.5 
L 198.794398 26.52 
" clip-path="url(#p6a9605d5d1)" style="fill: none; stroke: #b0b0b0; stroke-opacity: 0.3; stroke-width: 0.8; stroke-linecap: square"/>
     </g>
     <g id="line2d_8">
      <g>
       <use xlink:href="#m2907a1ef45" x="198.794398" y="317.5" style="stroke: #000000; stroke-width: 0.8"/>
      </g>
     </g>
     <g id="text_4">
      <!-- 0.4 -->
      <g transform="translate(190.842835 332.098437) scale(0.1 -0.1)">
       <defs>
        <path id="DejaVuSans-34" d="M 2419 4116 
L 825 1625 
L 2419 1625 
L 2419 4116 
z
M 2253 4666 
L 3047 4666 
L 3047 1625 
L 3713 1625 
L 3713 1100 
L 3047 1100 
L 3047 0 
L 2419 0 
L 2419 1100 
L 313 1100 
L 313 1709 
L 2253 4666 
z
" transform="scale(0.015625)"/>
       </defs>
       <use xlink:href="#DejaVuSans-30"/>
       <use xlink:href="#DejaVuSans-2e" x="63.623047"/>
       <use xlink:href="#DejaVuSans-34" x="95.410156"/>
      </g>
     </g>
    </g>
    <g id="xtick_5">
     <g id="line2d_9">
      <path d="M 241.582871 317.5 
L 241.582871 26.52 
" clip-path="url(#p6a9605d5d1)" style="fill: none; stroke: #b0b0b0; stroke-opacity: 0.3; stroke-width: 0.8; stroke-linecap: square"/>
     </g>
     <g id="line2d_10">
      <g>
       <use xlink:href="#m2907a1ef45" x="241.582871" y="317.5" style="stroke: #000000; stroke-width: 0.8"/>
      </g>
     </g>
     <g id="text_5">
      <!-- 0.6 -->
      <g transform="translate(233.631308 332.098437) scale(0.1 -0.1)">
       <defs>
        <path id="DejaVuSans-36" d="M 2113 2584 
Q 1688 2584 1439 2293 
Q 1191 2003 1191 1497 
Q 1191 994 1439 701 
Q 1688 409 2113 409 
Q 2538 409 2786 701 
Q 3034 994 3034 1497 
Q 3034 2003 2786 2293 
Q 2538 2584 2113 2584 
z
M 3366 4563 
L 3366 3988 
Q 3128 4100 2886 4159 
Q 2644 4219 2406 4219 
Q 1781 4219 1451 3797 
Q 1122 3375 1075 2522 
Q 1259 2794 1537 2939 
Q 1816 3084 2150 3084 
Q 2853 3084 3261 2657 
Q 3669 2231 3669 1497 
Q 3669 778 3244 343 
Q 2819 -91 2113 -91 
Q 1303 -91 875 529 
Q 447 1150 447 2328 
Q 447 3434 972 4092 
Q 1497 4750 2381 4750 
Q 2619 4750 2861 4703 
Q 3103 4656 3366 4563 
z
" transform="scale(0.015625)"/>
       </defs>
       <use xlink:href="#DejaVuSans-30"/>
       <use xlink:href="#DejaVuSans-2e" x="63.623047"/>
       <use xlink:href="#DejaVuSans-36" x="95.410156"/>
      </g>
     </g>
    </g>
    <g id="xtick_6">
     <g id="line2d_11">
      <path d="M 284.371344 317.5 
L 284.371344 26.52 
" clip-path="url(#p6a9605d5d1)" style="fill: none; stroke: #b0b0b0; stroke-opacity: 0.3; stroke-width: 0.8; stroke-linecap: square"/>
     </g>
     <g id="line2d_12">
      <g>
       <use xlink:href="#m2907a1ef45" x="284.371344" y="317.5" style="stroke: #000000; stroke-width: 0.8"/>
      </g>
     </g>
     <g id="text_6">
      <!-- 0.8 -->
      <g transform="translate(276.419781 332.098437) scale(0.1 -0.1)">
       <defs>
        <path id="DejaVuSans-38" d="M 2034 2216 
Q 1584 2216 1326 1975 
Q 1069 1734 1069 1313 
Q 1069 891 1326 650 
Q 1584 409 2034 409 
Q 2484 409 2743 651 
Q 3003 894 3003 1313 
Q 3003 1734 2745 1975 
Q 2488 2216 2034 2216 
z
M 1403 2484 
Q 997 2584 770 2862 
Q 544 3141 544 3541 
Q 544 4100 942 4425 
Q 1341 4750 2034 4750 
Q 2731 4750 3128 4425 
Q 3525 4100 3525 3541 
Q 3525 3141 3298 2862 
Q 3072 2584 2669 2484 
Q 3125 2378 3379 2068 
Q 3634 1759 3634 1313 
Q 3634 634 3220 271 
Q 2806 -91 2034 -91 
Q 1263 -91 848 271 
Q 434 634 434 1313 
Q 434 1759 690 2068 
Q 947 2378 1403 2484 
z
M 1172 3481 
Q 1172 3119 1398 2916 
Q 1625 2713 2034 2713 
Q 2441 2713 2670 2916 
Q 2900 3119 2900 3481 
Q 2900 3844 2670 4047 
Q 2441 4250 2034 4250 
Q 1625 4250 1398 4047 
Q 1172 3844 1172 3481 
z
" transform="scale(0.015625)"/>
       </defs>
       <use xlink:href="#DejaVuSans-30"/>
       <use xlink:href="#DejaVuSans-2e" x="63.623047"/>
       <use xlink:href="#DejaVuSans-38" x="95.410156"/>
      </g>
     </g>
    </g>
    <g id="xtick_7">
     <g id="line2d_13">
      <path d="M 327.159817 317.5 
L 327.159817 26.52 
" clip-path="url(#p6a9605d5d1)" style="fill: none; stroke: #b0b0b0; stroke-opacity: 0.3; stroke-width: 0.8; stroke-linecap: square"/>
     </g>
     <g id="line2d_14">
      <g>
       <use xlink:href="#m2907a1ef45" x="327.159817" y="317.5" style="stroke: #000000; stroke-width: 0.8"/>
      </g>
     </g>
     <g id="text_7">
      <!-- 1.0 -->
      <g transform="translate(319.208254 332.098437) scale(0.1 -0.1)">
       <defs>
        <path id="DejaVuSans-31" d="M 794 531 
L 1825 531 
L 1825 4091 
L 703 3866 
L 703 4441 
L 1819 4666 
L 2450 4666 
L 2450 531 
L 3481 531 
L 3481 0 
L 794 0 
L 794 531 
z
" transform="scale(0.015625)"/>
       </defs>
       <use xlink:href="#DejaVuSans-31"/>
       <use xlink:href="#DejaVuSans-2e" x="63.623047"/>
       <use xlink:href="#DejaVuSans-30" x="95.410156"/>
      </g>
     </g>
    </g>
    <g id="xtick_8">
     <g id="line2d_15">
      <path d="M 369.94829 317.5 
L 369.94829 26.52 
" clip-path="url(#p6a9605d5d1)" style="fill: none; stroke: #b0b0b0; stroke-opacity: 0.3; stroke-width: 0.8; stroke-linecap: square"/>
     </g>
     <g id="line2d_16">
      <g>
       <use xlink:href="#m2907a1ef45" x="369.94829" y="317.5" style="stroke: #000000; stroke-width: 0.8"/>
      </g>
     </g>
     <g id="text_8">
      <!-- 1.2 -->
      <g transform="translate(361.996727 332.098437) scale(0.1 -0.1)">
       <use xlink:href="#DejaVuSans-31"/>
       <use xlink:href="#DejaVuSans-2e" x="63.623047"/>
       <use xlink:href="#DejaVuSans-32" x="95.410156"/>
      </g>
     </g>
    </g>
    <g id="xtick_9">
     <g id="line2d_17">
      <path d="M 412.736762 317.5 
L 412.736762 26.52 
" clip-path="url(#p6a9605d5d1)" style="fill: none; stroke: #b0b0b0; stroke-opacity: 0.3; stroke-width: 0.8; stroke-linecap: square"/>
     </g>
     <g id="line2d_18">
      <g>
       <use xlink:href="#m2907a1ef45" x="412.736762" y="317.5" style="stroke: #000000; stroke-width: 0.8"/>
      </g>
     </g>
     <g id="text_9">
      <!-- 1.4 -->
      <g transform="translate(404.7852 332.098437) scale(0.1 -0.1)">
       <use xlink:href="#DejaVuSans-31"/>
       <use xlink:href="#DejaVuSans-2e" x="63.623047"/>
       <use xlink:href="#DejaVuSans-34" x="95.410156"/>
      </g>
     </g>
    </g>
    <g id="text_10">
     <!-- Alpha estimate (α̂) -->
     <g transform="translate(191.192967 346.176562) scale(0.1 -0.1)">
      <defs>
       <path id="DejaVuSans-41" d="M 2188 4044 
L 1331 1722 
L 3047 1722 
L 2188 4044 
z
M 1831 4666 
L 2547 4666 
L 4325 0 
L 3669 0 
L 3244 1197 
L 1141 1197 
L 716 0 
L 50 0 
L 1831 4666 
z
" transform="scale(0.015625)"/>
       <path id="DejaVuSans-6c" d="M 603 4863 
L 1178 4863 
L 1178 0 
L 603 0 
L 603 4863 
z
" transform="scale(0.015625)"/>
       <path id="DejaVuSans-70" d="M 1159 525 
L 1159 -1331 
L 581 -1331 
L 581 3500 
L 1159 3500 
L 1159 2969 
Q 1341 3281 1617 3432 
Q 1894 3584 2278 3584 
Q 2916 3584 3314 3078 
Q 3713 2572 3713 1747 
Q 3713 922 3314 415 
Q 2916 -91 2278 -91 
Q 1894 -91 1617 61 
Q 1341 213 1159 525 
z
M 3116 1747 
Q 3116 2381 2855 2742 
Q 2594 3103 2138 3103 
Q 1681 3103 1420 2742 
Q 1159 2381 1159 1747 
Q 1159 1113 1420 752 
Q 1681 391 2138 391 
Q 2594 391 2855 752 
Q 3116 1113 3116 1747 
z
" transform="scale(0.015625)"/>
       <path id="DejaVuSans-68" d="M 3513 2113 
L 3513 0 
L 2938 0 
L 2938 2094 
Q 2938 2591 2744 2837 
Q 2550 3084 2163 3084 
Q 1697 3084 1428 2787 
Q 1159 2491 1159 1978 
L 1159 0 
L 581 0 
L 581 4863 
L 1159 4863 
L 1159 2956 
Q 1366 3272 1645 3428 
Q 1925 3584 2291 3584 
Q 2894 3584 3203 3211 
Q 3513 2838 3513 2113 
z
" transform="scale(0.015625)"/>
       <path id="DejaVuSans-61" d="M 2194 1759 
Q 1497 1759 1228 1600 
Q 959 1441 959 1056 
Q 959 750 1161 570 
Q 1363 391 1709 391 
Q 2188 391 2477 730 
Q 2766 1069 2766 1631 
L 2766 1759 
L 2194 1759 
z
M 3341 1997 
L 3341 0 
L 2766 0 
L 2766 531 
Q 2569 213 2275 61 
Q 1981 -91 1556 -91 
Q 1019 -91 701 211 
Q 384 513 384 1019 
Q 384 1609 779 1909 
Q 1175 2209 1959 2209 
L 2766 2209 
L 2766 2266 
Q 2766 2663 2505 2880 
Q 2244 3097 1772 3097 
Q 1472 3097 1187 3025 
Q 903 2953 641 2809 
L 641 3341 
Q 956 3463 1253 3523 
Q 1550 3584 1831 3584 
Q 2591 3584 2966 3190 
Q 3341 2797 3341 1997 
z
" transform="scale(0.015625)"/>
       <path id="DejaVuSans-20" transform="scale(0.015625)"/>
       <path id="DejaVuSans-65" d="M 3597 1894 
L 3597 1613 
L 953 1613 
Q 991 1019 1311 708 
Q 1631 397 2203 397 
Q 2534 397 2845 478 
Q 3156 559 3463 722 
L 3463 178 
Q 3153 47 2828 -22 
Q 2503 -91 2169 -91 
Q 1331 -91 842 396 
Q 353 884 353 1716 
Q 353 2575 817 3079 
Q 1281 3584 2069 3584 
Q 2775 3584 3186 3129 
Q 3597 2675 3597 1894 
z
M 3022 2063 
Q 3016 2534 2758 2815 
Q 2500 3097 2075 3097 
Q 1594 3097 1305 2825 
Q 1016 2553 972 2059 
L 3022 2063 
z
" transform="scale(0.015625)"/>
       <path id="DejaVuSans-73" d="M 2834 3397 
L 2834 2853 
Q 2591 2978 2328 3040 
Q 2066 3103 1784 3103 
Q 1356 3103 1142 2972 
Q 928 2841 928 2578 
Q 928 2378 1081 2264 
Q 1234 2150 1697 2047 
L 1894 2003 
Q 2506 1872 2764 1633 
Q 3022 1394 3022 966 
Q 3022 478 2636 193 
Q 2250 -91 1575 -91 
Q 1294 -91 989 -36 
Q 684 19 347 128 
L 347 722 
Q 666 556 975 473 
Q 1284 391 1588 391 
Q 1994 391 2212 530 
Q 2431 669 2431 922 
Q 2431 1156 2273 1281 
Q 2116 1406 1581 1522 
L 1381 1569 
Q 847 1681 609 1914 
Q 372 2147 372 2553 
Q 372 3047 722 3315 
Q 1072 3584 1716 3584 
Q 2034 3584 2315 3537 
Q 2597 3491 2834 3397 
z
" transform="scale(0.015625)"/>
       <path id="DejaVuSans-74" d="M 1172 4494 
L 1172 3500 
L 2356 3500 
L 2356 3053 
L 1172 3053 
L 1172 1153 
Q 1172 725 1289 603 
Q 1406 481 1766 481 
L 2356 481 
L 2356 0 
L 1766 0 
Q 1100 0 847 248 
Q 594 497 594 1153 
L 594 3053 
L 172 3053 
L 172 3500 
L 594 3500 
L 594 4494 
L 1172 4494 
z
" transform="scale(0.015625)"/>
       <path id="DejaVuSans-69" d="M 603 3500 
L 1178 3500 
L 1178 0 
L 603 0 
L 603 3500 
z
M 603 4863 
L 1178 4863 
L 1178 4134 
L 603 4134 
L 603 4863 
z
" transform="scale(0.015625)"/>
       <path id="DejaVuSans-6d" d="M 3328 2828 
Q 3544 3216 3844 3400 
Q 4144 3584 4550 3584 
Q 5097 3584 5394 3201 
Q 5691 2819 5691 2113 
L 5691 0 
L 5113 0 
L 5113 2094 
Q 5113 2597 4934 2840 
Q 4756 3084 4391 3084 
Q 3944 3084 3684 2787 
Q 3425 2491 3425 1978 
L 3425 0 
L 2847 0 
L 2847 2094 
Q 2847 2600 2669 2842 
Q 2491 3084 2119 3084 
Q 1678 3084 1418 2786 
Q 1159 2488 1159 1978 
L 1159 0 
L 581 0 
L 581 3500 
L 1159 3500 
L 1159 2956 
Q 1356 3278 1631 3431 
Q 1906 3584 2284 3584 
Q 2666 3584 2933 3390 
Q 3200 3197 3328 2828 
z
" transform="scale(0.015625)"/>
       <path id="DejaVuSans-28" d="M 1984 4856 
Q 1566 4138 1362 3434 
Q 1159 2731 1159 2009 
Q 1159 1288 1364 580 
Q 1569 -128 1984 -844 
L 1484 -844 
Q 1016 -109 783 600 
Q 550 1309 550 2009 
Q 550 2706 781 3412 
Q 1013 4119 1484 4856 
L 1984 4856 
z
" transform="scale(0.015625)"/>
       <path id="DejaVuSans-3b1" d="M 2644 1628 
L 2506 2350 
Q 2366 3091 1809 3091 
Q 1391 3091 1200 2747 
Q 959 2316 959 1747 
Q 959 1059 1194 731 
Q 1431 397 1809 397 
Q 2228 397 2453 1063 
L 2644 1628 
z
M 2966 2584 
L 3275 3500 
L 3788 3500 
L 3147 1603 
L 3272 919 
Q 3300 766 3409 638 
Q 3538 488 3638 488 
L 3913 488 
L 3913 0 
L 3569 0 
Q 3275 0 3013 263 
Q 2884 394 2831 669 
Q 2688 322 2394 50 
Q 2256 -78 1809 -78 
Q 1075 -78 719 397 
Q 353 888 353 1747 
Q 353 2666 750 3097 
Q 1191 3578 1809 3578 
Q 2781 3578 2966 2584 
z
" transform="scale(0.015625)"/>
       <path id="DejaVuSans-302" d="M -1831 5119 
L -1369 5119 
L -603 3944 
L -1038 3944 
L -1600 4709 
L -2163 3944 
L -2597 3944 
L -1831 5119 
z
M -1600 3584 
L -1600 3584 
z
" transform="scale(0.015625)"/>
       <path id="DejaVuSans-29" d="M 513 4856 
L 1013 4856 
Q 1481 4119 1714 3412 
Q 1947 2706 1947 2009 
Q 1947 1309 1714 600 
Q 1481 -109 1013 -844 
L 513 -844 
Q 928 -128 1133 580 
Q 1338 1288 1338 2009 
Q 1338 2731 1133 3434 
Q 928 4138 513 4856 
z
" transform="scale(0.015625)"/>
      </defs>
      <use xlink:href="#DejaVuSans-41"/>
      <use xlink:href="#DejaVuSans-6c" x="68.408203"/>
      <use xlink:href="#DejaVuSans-70" x="96.191406"/>
      <use xlink:href="#DejaVuSans-68" x="159.667969"/>
      <use xlink:href="#DejaVuSans-61" x="223.046875"/>
      <use xlink:href="#DejaVuSans-20" x="284.326172"/>
      <use xlink:href="#DejaVuSans-65" x="316.113281"/>
      <use xlink:href="#DejaVuSans-73" x="377.636719"/>
      <use xlink:href="#DejaVuSans-74" x="429.736328"/>
      <use xlink:href="#DejaVuSans-69" x="468.945312"/>
      <use xlink:href="#DejaVuSans-6d" x="496.728516"/>
      <use xlink:href="#DejaVuSans-61" x="594.140625"/>
      <use xlink:href="#DejaVuSans-74" x="655.419922"/>
      <use xlink:href="#DejaVuSans-65" x="694.628906"/>
      <use xlink:href="#DejaVuSans-20" x="756.152344"/>
      <use xlink:href="#DejaVuSans-28" x="787.939453"/>
      <use xlink:href="#DejaVuSans-3b1" x="826.953125"/>
      <use xlink:href="#DejaVuSans-302" x="892.871094"/>
      <use xlink:href="#DejaVuSans-29" x="892.871094"/>
     </g>
    </g>
   </g>
   <g id="matplotlib.axis_2">
    <g id="ytick_1">
     <g id="line2d_19">
      <path d="M 56.18 286.609882 
L 419.393433 286.609882 
" clip-path="url(#p6a9605d5d1)" style="fill: none; stroke: #b0b0b0; stroke-opacity: 0.3; stroke-width: 0.8; stroke-linecap: square"/>
     </g>
     <g id="line2d_20">
      <defs>
       <path id="mc65b36ea4c" d="M 0 0 
L -3.5 0 
" style="stroke: #000000; stroke-width: 0.8"/>
      </defs>
      <g>
       <use xlink:href="#mc65b36ea4c" x="56.18" y="286.609882" style="stroke: #000000; stroke-width: 0.8"/>
      </g>
     </g>
     <g id="text_11">
      <!-- −0.2 -->
      <g transform="translate(24.897187 290.409101) scale(0.1 -0.1)">
       <use xlink:href="#DejaVuSans-2212"/>
       <use xlink:href="#DejaVuSans-30" x="83.789062"/>
       <use xlink:href="#DejaVuSans-2e" x="147.412109"/>
       <use xlink:href="#DejaVuSans-32" x="179.199219"/>
      </g>
     </g>
    </g>
    <g id="ytick_2">
     <g id="line2d_21">
      <path d="M 56.18 243.191383 
L 419.393433 243.191383 
" clip-path="url(#p6a9605d5d1)" style="fill: none; stroke: #b0b0b0; stroke-opacity: 0.3; stroke-width: 0.8; stroke-linecap: square"/>
     </g>
     <g id="line2d_22">
      <g>
       <use xlink:href="#mc65b36ea4c" x="56.18" y="243.191383" style="stroke: #000000; stroke-width: 0.8"/>
      </g>
     </g>
     <g id="text_12">
      <!-- 0.0 -->
      <g transform="translate(33.276875 246.990601) scale(0.1 -0.1)">
       <use xlink:href="#DejaVuSans-30"/>
       <use xlink:href="#DejaVuSans-2e" x="63.623047"/>
       <use xlink:href="#DejaVuSans-30" x="95.410156"/>
      </g>
     </g>
    </g>
    <g id="ytick_3">
     <g id="line2d_23">
      <path d="M 56.18 199.772883 
L 419.393433 199.772883 
" clip-path="url(#p6a9605d5d1)" style="fill: none; stroke: #b0b0b0; stroke-opacity: 0.3; stroke-width: 0.8; stroke-linecap: square"/>
     </g>
     <g id="line2d_24">
      <g>
       <use xlink:href="#mc65b36ea4c" x="56.18" y="199.772883" style="stroke: #000000; stroke-width: 0.8"/>
      </g>
     </g>
     <g id="text_13">
      <!-- 0.2 -->
      <g transform="translate(33.276875 203.572101) scale(0.1 -0.1)">
       <use xlink:href="#DejaVuSans-30"/>
       <use xlink:href="#DejaVuSans-2e" x="63.623047"/>
       <use xlink:href="#DejaVuSans-32" x="95.410156"/>
      </g>
     </g>
    </g>
    <g id="ytick_4">
     <g id="line2d_25">
      <path d="M 56.18 156.354383 
L 419.393433 156.354383 
" clip-path="url(#p6a9605d5d1)" style="fill: none; stroke: #b0b0b0; stroke-opacity: 0.3; stroke-width: 0.8; stroke-linecap: square"/>
     </g>
     <g id="line2d_26">
      <g>
       <use xlink:href="#mc65b36ea4c" x="56.18" y="156.354383" style="stroke: #000000; stroke-width: 0.8"/>
      </g>
     </g>
     <g id="text_14">
      <!-- 0.4 -->
      <g transform="translate(33.276875 160.153602) scale(0.1 -0.1)">
       <use xlink:href="#DejaVuSans-30"/>
       <use xlink:href="#DejaVuSans-2e" x="63.623047"/>
       <use xlink:href="#DejaVuSans-34" x="95.410156"/>
      </g>
     </g>
    </g>
    <g id="ytick_5">
     <g id="line2d_27">
      <path d="M 56.18 112.935883 
L 419.393433 112.935883 
" clip-path="url(#p6a9605d5d1)" style="fill: none; stroke: #b0b0b0; stroke-opacity: 0.3; stroke-width: 0.8; stroke-linecap: square"/>
     </g>
     <g id="line2d_28">
      <g>
       <use xlink:href="#mc65b36ea4c" x="56.18" y="112.935883" style="stroke: #000000; stroke-width: 0.8"/>
      </g>
     </g>
     <g id="text_15">
      <!-- 0.6 -->
      <g transform="translate(33.276875 116.735102) scale(0.1 -0.1)">
       <use xlink:href="#DejaVuSans-30"/>
       <use xlink:href="#DejaVuSans-2e" x="63.623047"/>
       <use xlink:href="#DejaVuSans-36" x="95.410156"/>
      </g>
     </g>
    </g>
    <g id="ytick_6">
     <g id="line2d_29">
      <path d="M 56.18 69.517383 
L 419.393433 69.517383 
" clip-path="url(#p6a9605d5d1)" style="fill: none; stroke: #b0b0b0; stroke-opacity: 0.3; stroke-width: 0.8; stroke-linecap: square"/>
     </g>
     <g id="line2d_30">
      <g>
       <use xlink:href="#mc65b36ea4c" x="56.18" y="69.517383" style="stroke: #000000; stroke-width: 0.8"/>
      </g>
     </g>
     <g id="text_16">
      <!-- 0.8 -->
      <g transform="translate(33.276875 73.316602) scale(0.1 -0.1)">
       <use xlink:href="#DejaVuSans-30"/>
       <use xlink:href="#DejaVuSans-2e" x="63.623047"/>
       <use xlink:href="#DejaVuSans-38" x="95.410156"/>
      </g>
     </g>
    </g>
    <g id="text_17">
     <!-- p-value -->
     <g transform="translate(18.8175 190.514687) rotate(-90) scale(0.1 -0.1)">
      <defs>
       <path id="DejaVuSans-2d" d="M 313 2009 
L 1997 2009 
L 1997 1497 
L 313 1497 
L 313 2009 
z
" transform="scale(0.015625)"/>
       <path id="DejaVuSans-76" d="M 191 3500 
L 800 3500 
L 1894 563 
L 2988 3500 
L 3597 3500 
L 2284 0 
L 1503 0 
L 191 3500 
z
" transform="scale(0.015625)"/>
       <path id="DejaVuSans-75" d="M 544 1381 
L 544 3500 
L 1119 3500 
L 1119 1403 
Q 1119 906 1312 657 
Q 1506 409 1894 409 
Q 2359 409 2629 706 
Q 2900 1003 2900 1516 
L 2900 3500 
L 3475 3500 
L 3475 0 
L 2900 0 
L 2900 538 
Q 2691 219 2414 64 
Q 2138 -91 1772 -91 
Q 1169 -91 856 284 
Q 544 659 544 1381 
z
M 1991 3584 
L 1991 3584 
z
" transform="scale(0.015625)"/>
      </defs>
      <use xlink:href="#DejaVuSans-70"/>
      <use xlink:href="#DejaVuSans-2d" x="63.476562"/>
      <use xlink:href="#DejaVuSans-76" x="96.935547"/>
      <use xlink:href="#DejaVuSans-61" x="156.115234"/>
      <use xlink:href="#DejaVuSans-6c" x="217.394531"/>
      <use xlink:href="#DejaVuSans-75" x="245.177734"/>
      <use xlink:href="#DejaVuSans-65" x="308.556641"/>
     </g>
    </g>
   </g>
   <g id="line2d_31">
    <path d="M 311.726377 233.846711 
L 287.838003 215.39088 
L 189.38823 139.329932 
L 372.253989 280.609516 
L 315.463948 236.734307 
L 347.330757 261.354168 
L 343.532275 258.419512 
L 331.199936 248.891716 
L 324.224844 243.502856 
L 382.007433 288.144894 
L 329.788179 247.801012 
L 215.515857 159.515779 
L 237.225725 176.288526 
L 99.945973 70.228067 
L 189.181019 139.169843 
L 264.21836 197.142666 
L 402.883732 304.273636 
L 342.531617 257.646418 
L 287.704594 215.28781 
L 214.651863 158.848269 
L 185.514074 136.336811 
L 72.689702 49.170245 
L 300.742668 225.360847 
L 351.024966 264.208264 
L 305.5683 229.089065 
L 200.797891 148.14488 
L 332.835318 250.15519 
L 308.801806 231.587227 
L 340.921774 256.402676 
L 225.788927 167.452612 
L 339.139084 255.025393 
L 278.103081 207.869812 
L 370.743088 279.442214 
L 242.199313 180.131052 
L 299.862816 224.681086 
L 150.496827 109.282966 
L 124.027784 88.833345 
L 294.681608 220.678156 
L 306.047211 229.459065 
L 306.535613 229.836397 
L 101.794993 71.656595 
L 310.726421 233.074159 
L 195.979342 144.422135 
L 94.422182 65.960462 
L 121.46467 86.853118 
L 100.1015 70.348225 
L 132.469242 95.3551 
L 322.776452 242.383848 
L 312.049526 234.096372 
L 258.704768 192.882941 
L 201.907653 149.002267 
L 196.769052 145.032254 
L 317.420277 238.24574 
L 221.452401 164.102272 
L 207.293738 153.163482 
L 308.5887 231.422584 
L 164.860523 120.380161 
L 165.572302 120.930072 
L 343.13718 258.114268 
L 400.668275 302.562005 
L 241.915347 179.911664 
L 258.426295 192.667796 
L 266.278517 198.734316 
L 304.502775 228.265854 
L 293.005151 219.382948 
L 333.783421 250.887681 
L 284.149543 212.541226 
L 146.765488 106.400184 
L 154.810823 112.6159 
L 304.349215 228.147217 
L 280.039839 209.366125 
L 103.450226 72.935405 
L 229.447827 170.279428 
L 139.000354 100.400948 
L 126.623292 90.838599 
L 136.612658 98.556247 
L 242.161211 180.101615 
L 217.622069 161.14301 
L 235.969688 175.318129 
L 330.164484 248.09174 
" clip-path="url(#p6a9605d5d1)" style="fill: none; stroke: #ff0000; stroke-width: 2; stroke-linecap: square"/>
   </g>
   <g id="patch_3">
    <path d="M 56.18 317.5 
L 56.18 26.52 
" style="fill: none; stroke: #000000; stroke-width: 0.8; stroke-linejoin: miter; stroke-linecap: square"/>
   </g>
   <g id="patch_4">
    <path d="M 419.393433 317.5 
L 419.393433 26.52 
" style="fill: none; stroke: #000000; stroke-width: 0.8; stroke-linejoin: miter; stroke-linecap: square"/>
   </g>
   <g id="patch_5">
    <path d="M 56.18 317.5 
L 419.393433 317.5 
" style="fill: none; stroke: #000000; stroke-width: 0.8; stroke-linejoin: miter; stroke-linecap: square"/>
   </g>
   <g id="patch_6">
    <path d="M 56.18 26.52 
L 419.393433 26.52 
" style="fill: none; stroke: #000000; stroke-width: 0.8; stroke-linejoin: miter; stroke-linecap: square"/>
   </g>
   <g id="text_18">
    <!-- Least Squares Regression: p-value vs α̂ -->
    <g transform="translate(120.246717 20.52) scale(0.12 -0.12)">
     <defs>
      <path id="DejaVuSans-4c" d="M 628 4666 
L 1259 4666 
L 1259 531 
L 3531 531 
L 3531 0 
L 628 0 
L 628 4666 
z
" transform="scale(0.015625)"/>
      <path id="DejaVuSans-53" d="M 3425 4513 
L 3425 3897 
Q 3066 4069 2747 4153 
Q 2428 4238 2131 4238 
Q 1616 4238 1336 4038 
Q 1056 3838 1056 3469 
Q 1056 3159 1242 3001 
Q 1428 2844 1947 2747 
L 2328 2669 
Q 3034 2534 3370 2195 
Q 3706 1856 3706 1288 
Q 3706 609 3251 259 
Q 2797 -91 1919 -91 
Q 1588 -91 1214 -16 
Q 841 59 441 206 
L 441 856 
Q 825 641 1194 531 
Q 1563 422 1919 422 
Q 2459 422 2753 634 
Q 3047 847 3047 1241 
Q 3047 1584 2836 1778 
Q 2625 1972 2144 2069 
L 1759 2144 
Q 1053 2284 737 2584 
Q 422 2884 422 3419 
Q 422 4038 858 4394 
Q 1294 4750 2059 4750 
Q 2388 4750 2728 4690 
Q 3069 4631 3425 4513 
z
" transform="scale(0.015625)"/>
      <path id="DejaVuSans-71" d="M 947 1747 
Q 947 1113 1208 752 
Q 1469 391 1925 391 
Q 2381 391 2643 752 
Q 2906 1113 2906 1747 
Q 2906 2381 2643 2742 
Q 2381 3103 1925 3103 
Q 1469 3103 1208 2742 
Q 947 2381 947 1747 
z
M 2906 525 
Q 2725 213 2448 61 
Q 2172 -91 1784 -91 
Q 1150 -91 751 415 
Q 353 922 353 1747 
Q 353 2572 751 3078 
Q 1150 3584 1784 3584 
Q 2172 3584 2448 3432 
Q 2725 3281 2906 2969 
L 2906 3500 
L 3481 3500 
L 3481 -1331 
L 2906 -1331 
L 2906 525 
z
" transform="scale(0.015625)"/>
      <path id="DejaVuSans-72" d="M 2631 2963 
Q 2534 3019 2420 3045 
Q 2306 3072 2169 3072 
Q 1681 3072 1420 2755 
Q 1159 2438 1159 1844 
L 1159 0 
L 581 0 
L 581 3500 
L 1159 3500 
L 1159 2956 
Q 1341 3275 1631 3429 
Q 1922 3584 2338 3584 
Q 2397 3584 2469 3576 
Q 2541 3569 2628 3553 
L 2631 2963 
z
" transform="scale(0.015625)"/>
      <path id="DejaVuSans-52" d="M 2841 2188 
Q 3044 2119 3236 1894 
Q 3428 1669 3622 1275 
L 4263 0 
L 3584 0 
L 2988 1197 
Q 2756 1666 2539 1819 
Q 2322 1972 1947 1972 
L 1259 1972 
L 1259 0 
L 628 0 
L 628 4666 
L 2053 4666 
Q 2853 4666 3247 4331 
Q 3641 3997 3641 3322 
Q 3641 2881 3436 2590 
Q 3231 2300 2841 2188 
z
M 1259 4147 
L 1259 2491 
L 2053 2491 
Q 2509 2491 2742 2702 
Q 2975 2913 2975 3322 
Q 2975 3731 2742 3939 
Q 2509 4147 2053 4147 
L 1259 4147 
z
" transform="scale(0.015625)"/>
      <path id="DejaVuSans-67" d="M 2906 1791 
Q 2906 2416 2648 2759 
Q 2391 3103 1925 3103 
Q 1463 3103 1205 2759 
Q 947 2416 947 1791 
Q 947 1169 1205 825 
Q 1463 481 1925 481 
Q 2391 481 2648 825 
Q 2906 1169 2906 1791 
z
M 3481 434 
Q 3481 -459 3084 -895 
Q 2688 -1331 1869 -1331 
Q 1566 -1331 1297 -1286 
Q 1028 -1241 775 -1147 
L 775 -588 
Q 1028 -725 1275 -790 
Q 1522 -856 1778 -856 
Q 2344 -856 2625 -561 
Q 2906 -266 2906 331 
L 2906 616 
Q 2728 306 2450 153 
Q 2172 0 1784 0 
Q 1141 0 747 490 
Q 353 981 353 1791 
Q 353 2603 747 3093 
Q 1141 3584 1784 3584 
Q 2172 3584 2450 3431 
Q 2728 3278 2906 2969 
L 2906 3500 
L 3481 3500 
L 3481 434 
z
" transform="scale(0.015625)"/>
      <path id="DejaVuSans-6f" d="M 1959 3097 
Q 1497 3097 1228 2736 
Q 959 2375 959 1747 
Q 959 1119 1226 758 
Q 1494 397 1959 397 
Q 2419 397 2687 759 
Q 2956 1122 2956 1747 
Q 2956 2369 2687 2733 
Q 2419 3097 1959 3097 
z
M 1959 3584 
Q 2709 3584 3137 3096 
Q 3566 2609 3566 1747 
Q 3566 888 3137 398 
Q 2709 -91 1959 -91 
Q 1206 -91 779 398 
Q 353 888 353 1747 
Q 353 2609 779 3096 
Q 1206 3584 1959 3584 
z
" transform="scale(0.015625)"/>
      <path id="DejaVuSans-6e" d="M 3513 2113 
L 3513 0 
L 2938 0 
L 2938 2094 
Q 2938 2591 2744 2837 
Q 2550 3084 2163 3084 
Q 1697 3084 1428 2787 
Q 1159 2491 1159 1978 
L 1159 0 
L 581 0 
L 581 3500 
L 1159 3500 
L 1159 2956 
Q 1366 3272 1645 3428 
Q 1925 3584 2291 3584 
Q 2894 3584 3203 3211 
Q 3513 2838 3513 2113 
z
" transform="scale(0.015625)"/>
      <path id="DejaVuSans-3a" d="M 750 794 
L 1409 794 
L 1409 0 
L 750 0 
L 750 794 
z
M 750 3309 
L 1409 3309 
L 1409 2516 
L 750 2516 
L 750 3309 
z
" transform="scale(0.015625)"/>
     </defs>
     <use xlink:href="#DejaVuSans-4c"/>
     <use xlink:href="#DejaVuSans-65" x="53.962891"/>
     <use xlink:href="#DejaVuSans-61" x="115.486328"/>
     <use xlink:href="#DejaVuSans-73" x="176.765625"/>
     <use xlink:href="#DejaVuSans-74" x="228.865234"/>
     <use xlink:href="#DejaVuSans-20" x="268.074219"/>
     <use xlink:href="#DejaVuSans-53" x="299.861328"/>
     <use xlink:href="#DejaVuSans-71" x="363.337891"/>
     <use xlink:href="#DejaVuSans-75" x="426.814453"/>
     <use xlink:href="#DejaVuSans-61" x="490.193359"/>
     <use xlink:href="#DejaVuSans-72" x="551.472656"/>
     <use xlink:href="#DejaVuSans-65" x="590.335938"/>
     <use xlink:href="#DejaVuSans-73" x="651.859375"/>
     <use xlink:href="#DejaVuSans-20" x="703.958984"/>
     <use xlink:href="#DejaVuSans-52" x="735.746094"/>
     <use xlink:href="#DejaVuSans-65" x="800.728516"/>
     <use xlink:href="#DejaVuSans-67" x="862.251953"/>
     <use xlink:href="#DejaVuSans-72" x="925.728516"/>
     <use xlink:href="#DejaVuSans-65" x="964.591797"/>
     <use xlink:href="#DejaVuSans-73" x="1026.115234"/>
     <use xlink:href="#DejaVuSans-73" x="1078.214844"/>
     <use xlink:href="#DejaVuSans-69" x="1130.314453"/>
     <use xlink:href="#DejaVuSans-6f" x="1158.097656"/>
     <use xlink:href="#DejaVuSans-6e" x="1219.279297"/>
     <use xlink:href="#DejaVuSans-3a" x="1282.658203"/>
     <use xlink:href="#DejaVuSans-20" x="1316.349609"/>
     <use xlink:href="#DejaVuSans-70" x="1348.136719"/>
     <use xlink:href="#DejaVuSans-2d" x="1411.613281"/>
     <use xlink:href="#DejaVuSans-76" x="1445.072266"/>
     <use xlink:href="#DejaVuSans-61" x="1504.251953"/>
     <use xlink:href="#DejaVuSans-6c" x="1565.53125"/>
     <use xlink:href="#DejaVuSans-75" x="1593.314453"/>
     <use xlink:href="#DejaVuSans-65" x="1656.693359"/>
     <use xlink:href="#DejaVuSans-20" x="1718.216797"/>
     <use xlink:href="#DejaVuSans-76" x="1750.003906"/>
     <use xlink:href="#DejaVuSans-73" x="1809.183594"/>
     <use xlink:href="#DejaVuSans-20" x="1861.283203"/>
     <use xlink:href="#DejaVuSans-3b1" x="1893.070312"/>
     <use xlink:href="#DejaVuSans-302" x="1958.988281"/>
    </g>
   </g>
   <g id="legend_1">
    <g id="patch_7">
     <path d="M 273.938746 63.87625 
L 412.393433 63.87625 
Q 414.393433 63.87625 414.393433 61.87625 
L 414.393433 33.52 
Q 414.393433 31.52 412.393433 31.52 
L 273.938746 31.52 
Q 271.938746 31.52 271.938746 33.52 
L 271.938746 61.87625 
Q 271.938746 63.87625 273.938746 63.87625 
z
" style="fill: #ffffff; opacity: 0.8; stroke: #cccccc; stroke-linejoin: miter"/>
    </g>
    <g id="PathCollection_2">
     <g>
      <use xlink:href="#m9dd349780f" x="285.938746" y="40.493437" style="fill: #4169e1; fill-opacity: 0.6; stroke: #4169e1; stroke-opacity: 0.6"/>
     </g>
    </g>
    <g id="text_19">
     <!-- Data -->
     <g transform="translate(303.938746 43.118437) scale(0.1 -0.1)">
      <defs>
       <path id="DejaVuSans-44" d="M 1259 4147 
L 1259 519 
L 2022 519 
Q 2988 519 3436 956 
Q 3884 1394 3884 2338 
Q 3884 3275 3436 3711 
Q 2988 4147 2022 4147 
L 1259 4147 
z
M 628 4666 
L 1925 4666 
Q 3281 4666 3915 4102 
Q 4550 3538 4550 2338 
Q 4550 1131 3912 565 
Q 3275 0 1925 0 
L 628 0 
L 628 4666 
z
" transform="scale(0.015625)"/>
      </defs>
      <use xlink:href="#DejaVuSans-44"/>
      <use xlink:href="#DejaVuSans-61" x="77.001953"/>
      <use xlink:href="#DejaVuSans-74" x="138.28125"/>
      <use xlink:href="#DejaVuSans-61" x="177.490234"/>
     </g>
    </g>
    <g id="line2d_32">
     <path d="M 275.938746 54.296562 
L 285.938746 54.296562 
L 295.938746 54.296562 
" style="fill: none; stroke: #ff0000; stroke-width: 2; stroke-linecap: square"/>
    </g>
    <g id="text_20">
     <!-- p = 0.749 + -0.761·α -->
     <g transform="translate(303.938746 57.796562) scale(0.1 -0.1)">
      <defs>
       <path id="DejaVuSans-3d" d="M 678 2906 
L 4684 2906 
L 4684 2381 
L 678 2381 
L 678 2906 
z
M 678 1631 
L 4684 1631 
L 4684 1100 
L 678 1100 
L 678 1631 
z
" transform="scale(0.015625)"/>
       <path id="DejaVuSans-37" d="M 525 4666 
L 3525 4666 
L 3525 4397 
L 1831 0 
L 1172 0 
L 2766 4134 
L 525 4134 
L 525 4666 
z
" transform="scale(0.015625)"/>
       <path id="DejaVuSans-39" d="M 703 97 
L 703 672 
Q 941 559 1184 500 
Q 1428 441 1663 441 
Q 2288 441 2617 861 
Q 2947 1281 2994 2138 
Q 2813 1869 2534 1725 
Q 2256 1581 1919 1581 
Q 1219 1581 811 2004 
Q 403 2428 403 3163 
Q 403 3881 828 4315 
Q 1253 4750 1959 4750 
Q 2769 4750 3195 4129 
Q 3622 3509 3622 2328 
Q 3622 1225 3098 567 
Q 2575 -91 1691 -91 
Q 1453 -91 1209 -44 
Q 966 3 703 97 
z
M 1959 2075 
Q 2384 2075 2632 2365 
Q 2881 2656 2881 3163 
Q 2881 3666 2632 3958 
Q 2384 4250 1959 4250 
Q 1534 4250 1286 3958 
Q 1038 3666 1038 3163 
Q 1038 2656 1286 2365 
Q 1534 2075 1959 2075 
z
" transform="scale(0.015625)"/>
       <path id="DejaVuSans-2b" d="M 2944 4013 
L 2944 2272 
L 4684 2272 
L 4684 1741 
L 2944 1741 
L 2944 0 
L 2419 0 
L 2419 1741 
L 678 1741 
L 678 2272 
L 2419 2272 
L 2419 4013 
L 2944 4013 
z
" transform="scale(0.015625)"/>
       <path id="DejaVuSans-b7" d="M 684 2619 
L 1344 2619 
L 1344 1825 
L 684 1825 
L 684 2619 
z
" transform="scale(0.015625)"/>
      </defs>
      <use xlink:href="#DejaVuSans-70"/>
      <use xlink:href="#DejaVuSans-20" x="63.476562"/>
      <use xlink:href="#DejaVuSans-3d" x="95.263672"/>
      <use xlink:href="#DejaVuSans-20" x="179.052734"/>
      <use xlink:href="#DejaVuSans-30" x="210.839844"/>
      <use xlink:href="#DejaVuSans-2e" x="274.462891"/>
      <use xlink:href="#DejaVuSans-37" x="306.25"/>
      <use xlink:href="#DejaVuSans-34" x="369.873047"/>
      <use xlink:href="#DejaVuSans-39" x="433.496094"/>
      <use xlink:href="#DejaVuSans-20" x="497.119141"/>
      <use xlink:href="#DejaVuSans-2b" x="528.90625"/>
      <use xlink:href="#DejaVuSans-20" x="612.695312"/>
      <use xlink:href="#DejaVuSans-2d" x="644.482422"/>
      <use xlink:href="#DejaVuSans-30" x="680.566406"/>
      <use xlink:href="#DejaVuSans-2e" x="744.189453"/>
      <use xlink:href="#DejaVuSans-37" x="775.976562"/>
      <use xlink:href="#DejaVuSans-36" x="839.599609"/>
      <use xlink:href="#DejaVuSans-31" x="903.222656"/>
      <use xlink:href="#DejaVuSans-b7" x="966.845703"/>
      <use xlink:href="#DejaVuSans-3b1" x="998.632812"/>
     </g>
    </g>
   </g>
  </g>
 </g>
 <defs>
  <clipPath id="p6a9605d5d1">
   <rect x="56.18" y="26.52" width="363.213433" height="290.98"/>
  </clipPath>
 </defs>
</svg>
